    Movie: The Dictator
    IMDB link: 1645170
    Detected quality: BDRip
    Release date: 11 May 2012
    Language: English
    Subtitles: English
    Genre: Comedy

Cast: John C. Reilly, Ben Kingsley, Glenn Andreiev, Sacha Baron Cohen, Danielle Burgio, Kevin Corrigan, Marshall Factora, Anna Faris, Peter Iasillo Jr., Sondra James and others 

General
Complete name : The Dictator 2012 BRRip 500mb {ECS}.m4v
Format : MPEG-4
Format profile : Base Media / Version 2
Codec ID : mp42
File size : 488 MiB
Duration : 1h 38mn
Overall bit rate mode : Variable
Overall bit rate : 691 Kbps

video
ID : 1
Format : AVC
Format/Info : Advanced Video Codec
Format profile : High@L3.0
Format settings, CABAC : No
Format settings, ReFrames : 4 frames
Codec ID : avc1
Codec ID/Info : Advanced Video Coding
Duration : 1h 38mn
Bit rate mode : Variable
Bit rate : 559 Kbps
Width : 720 pixels
Height : 300 pixels
Display aspect ratio : 2.40:1
Frame rate mode : Variable
Frame rate : 23.976 fps
Minimum frame rate : 7.992 fps
Maximum frame rate : 23.981 fps
Color space : YUV
Chroma subsampling : 4:2:0
Bit depth : 8 bits
Scan type : Progressive
Bits/(Pixel*Frame) : 0.108
Stream size : 395 MiB (81%)
Writing library : x264 core 120

Audio
ID : 2
Format : AAC
Format/Info : Advanced Audio Codec
Format profile : LC
Codec ID : 40
Duration : 1h 38mn
Bit rate mode : Variable
Bit rate : 128 Kbps
Maximum bit rate : 237 Kbps
Channel(s) : 2 channels
Channel positions : Front: L R
Sampling rate : 44.1 KHz
Compression mode : Lossy
Delay relative to video : -167ms
Stream size : 90.3 MiB (18%)
Language : English
 
http://i1271.photobucket.com/albums/jj629/sameer_ecs/TheDictator2012BRRip500mbECSm4v_thumbs_20120806_192054.jpg